<?xml version="1.0" encoding="utf8" standalone="no"?>
<svg enable-background="new" viewBox="0 0 407.28125 94.4375" xmlns="http://www.w3.org/2000/svg">
<defs>
<linearGradient gradientUnits="userSpaceOnUse" id="linearGradient3923" x2="0" y1="688.93365" y2="778.3291">
<stop offset="0" stop-color="#0e3242"/>
<stop offset="1" stop-color="#4fa5e0"/>
</linearGradient>
<linearGradient gradientUnits="userSpaceOnUse" id="linearGradient3925" x2="0" y1="694.01056" y2="728.35834">
<stop offset="0" stop-color="#fff"/>
<stop offset="1" stop-color="#fff" stop-opacity="0"/>
</linearGradient>
<linearGradient gradientUnits="userSpaceOnUse" id="linearGradient3927" x2="0" y1="770.79795" y2="744.50138">
<stop offset="0" stop-color="#bafdff"/>
<stop offset="1" stop-color="#b5fcff" stop-opacity="0"/>
</linearGradient>
</defs>
<g transform="translate(-175.65625,-686)">
<path d="m222.85714,687.48846h312.85716a45.73089,45.73089 0 0,1 45.73089,45.73089 45.73089,45.73089 0 0,1 -45.73089,45.73089h-312.85716a45.73089,45.73089 0 0,1 -45.73089-45.73089 45.73089,45.73089 0 0,1 45.73089-45.73089" fill="url(#linearGradient3923)" stroke="#e2e3db" stroke-linecap="round" stroke-linejoin="round" stroke-width="2.96679"/>
<path d="m215.41502,693.72577h328.29953a16.4472,16.4472 0 0,1 16.4472,16.4472 16.4472,16.4472 0 0,1 -16.4472,16.4472h-328.29953a16.4472,16.4472 0 0,1 -16.4472-16.4472 16.4472,16.4472 0 0,1 16.4472-16.4472" fill="url(#linearGradient3925)"/>
<path d="m215.41502,737.16235h328.29953a16.4472,16.4472 0 0,1 16.4472,16.4472 16.4472,16.4472 0 0,1 -16.4472,16.4472h-328.29953a16.4472,16.4472 0 0,1 -16.4472-16.4472 16.4472,16.4472 0 0,1 16.4472-16.4472" fill="url(#linearGradient3927)"/>
</g>
</svg>
